<?xml version="1.0" encoding="utf-8"?>
<!-- Generator: Adobe Illustrator 24.2.3, SVG Export Plug-In . SVG Version: 6.00 Build 0)  -->
<svg version="1.1" id="Capa_1" xmlns="http://www.w3.org/2000/svg" xmlns:xlink="http://www.w3.org/1999/xlink" x="0px" y="0px"
	 viewBox="0 0 40 40" style="enable-background:new 0 0 40 40;" xml:space="preserve">
<style type="text/css">
	.st0{opacity:5.000000e-02;fill-rule:evenodd;clip-rule:evenodd;fill:#1DA1F2;enable-background:new    ;}
	.st1{fill-rule:evenodd;clip-rule:evenodd;fill:#1DA1F2;}
</style>
<path class="st0" d="M37.2,8.9H2.7c-1.1,0-2,0.9-2,2V17c0,0.6,0.4,1.2,1,1.3v18.1h36.6V18.3c0.6-0.1,1-0.7,1-1.3v-6.1
	C39.2,9.8,38.3,8.9,37.2,8.9z M23,20.1h-6.1v6.1H23V20.1z"/>
<path class="st1" d="M15.4,3.9c-0.7,0-1.3,0.6-1.3,1.3v1c0,0.4-0.3,0.7-0.7,0.7s-0.7-0.3-0.7-0.7v-1c0-1.5,1.2-2.7,2.7-2.7h9.1
	c1.5,0,2.7,1.2,2.7,2.7v1.5c0,0.4-0.3,0.7-0.7,0.7c-0.4,0-0.7-0.3-0.7-0.7V5.2c0-0.7-0.6-1.3-1.3-1.3C24.5,3.9,15.4,3.9,15.4,3.9z
	 M0,11.4c0-1.5,1.2-2.7,2.7-2.7h34.5c1.5,0,2.7,1.2,2.7,2.7v5.5c0,1.3-0.9,2.4-2.1,2.7l-14.1,3.3v3.2c0,0.7-0.5,1.2-1.2,1.2h-5.1
	c-0.7,0-1.2-0.5-1.2-1.2v-3.2L2.1,19.5C0.9,19.2,0,18.1,0,16.9V11.4z M16.2,21.4V21c0-0.7,0.5-1.2,1.2-1.2h5.1
	c0.7,0,1.2,0.5,1.2,1.2v0.4l13.8-3.3c0.6-0.1,1-0.7,1-1.3v-5.5c0-0.7-0.6-1.3-1.3-1.3H2.7c-0.7,0-1.3,0.6-1.3,1.3v5.5
	c0,0.6,0.4,1.1,1,1.3L16.2,21.4z M17.7,21.2v4.7h4.7v-4.7H17.7z M1.7,21.8c0.4,0,0.7,0.3,0.7,0.7v12.2C2.4,35.4,3,36,3.7,36h32.5
	c0.7,0,1.3-0.6,1.3-1.3V22.5c0-0.4,0.3-0.7,0.7-0.7s0.7,0.3,0.7,0.7v12.2c0,1.5-1.2,2.7-2.7,2.7H3.8c-1.5,0-2.7-1.2-2.7-2.7V22.5
	C1,22.2,1.3,21.8,1.7,21.8z"/>
</svg>
