<?xml version="1.0" encoding="utf-8"?>
<!-- Generator: Adobe Illustrator 24.2.3, SVG Export Plug-In . SVG Version: 6.00 Build 0)  -->
<svg version="1.1" id="Capa_1" xmlns="http://www.w3.org/2000/svg" xmlns:xlink="http://www.w3.org/1999/xlink" x="0px" y="0px"
	 viewBox="0 0 42 40" style="enable-background:new 0 0 42 40;" xml:space="preserve">
<style type="text/css">
	.st0{opacity:5.000000e-02;fill-rule:evenodd;clip-rule:evenodd;fill:#1DA1F2;enable-background:new    ;}
	.st1{fill:#1DA1F2;stroke:#1DA1F2;stroke-width:0.25;}
</style>
<path class="st0" d="M1.5,10.9c0-1.1,0.9-2,2-2h34.8c1.1,0,2,0.9,2,2v21c0,1.1-0.9,2-2,2H24.2c4.2-1.4,7.3-5.3,7.3-10
	c0-5.8-4.7-10.5-10.5-10.5s-10.5,4.7-10.5,10.5c0,4.7,3.1,8.6,7.3,10H3.5c-1.1,0-2-0.9-2-2V10.9z M21,28.9c2.8,0,5-2.2,5-5
	c0-2.8-2.2-5-5-5s-5,2.2-5,5C16,26.7,18.2,28.9,21,28.9z"/>
<path class="st1" d="M2,25.6C2,25.8,1.8,26,1.6,26s-0.5-0.2-0.5-0.5v-2.4c0-0.3,0.2-0.5,0.5-0.5S2,22.9,2,23.2V25.6z"/>
<path class="st1" d="M38.7,8.7h-2.4V8.4c0-0.8-0.6-1.4-1.4-1.4h-0.2V6.3c0-0.8-0.6-1.4-1.4-1.4h-2.8c-0.8,0-1.4,0.6-1.4,1.4V7h-0.2
	c-0.8,0-1.4,0.6-1.4,1.4v0.3H19V8.1c0-0.8-0.6-1.4-1.4-1.4h-1.1c-0.8,0-1.4,0.6-1.4,1.4v0.6h-1.4V7.3c0-0.8-0.6-1.4-1.4-1.4H6.1
	c-0.8,0-1.4,0.6-1.4,1.4v1.4H3.3C2,8.7,1,9.7,1,11v9.7c0,0.3,0.3,0.6,0.6,0.6s0.6-0.3,0.6-0.6v-5.6h3.2c0.3,0.9,1.1,1.6,2.1,1.6
	c1,0,1.9-0.7,2.1-1.6h4.7c-2.7,2-4.5,5.3-4.5,8.9c0,2.4,0.8,4.6,2,6.4H2.2v-2.3c0-0.3-0.3-0.6-0.6-0.6S1,27.8,1,28.1v3.7
	C1,33,2,34,3.3,34h13c1.4,0.7,3.1,1.1,4.8,1.1c1.7,0,3.3-0.4,4.8-1.1c0,0,0,0,0,0h13c1.2,0,2.3-1,2.3-2.3V11C41,9.7,40,8.7,38.7,8.7
	L38.7,8.7z M30.2,6.3c0-0.1,0.1-0.2,0.2-0.2h2.8c0.1,0,0.2,0.1,0.2,0.2V7h-3.3L30.2,6.3L30.2,6.3z M28.5,8.4c0-0.1,0.1-0.2,0.2-0.2
	h6.1c0.1,0,0.2,0.1,0.2,0.2v0.3h-6.6L28.5,8.4L28.5,8.4z M16.2,8.1c0-0.1,0.1-0.2,0.2-0.2h1.1c0.1,0,0.2,0.1,0.2,0.2v0.6h-1.6V8.1z
	 M5.8,7.3C5.8,7.1,6,7,6.1,7h6.1c0.1,0,0.2,0.1,0.2,0.2v1.4H5.8V7.3z M7.5,15.6c-0.6,0-1.1-0.5-1.1-1.1c0-0.6,0.5-1.1,1.1-1.1
	c0.6,0,1.1,0.5,1.1,1.1C8.6,15.1,8.1,15.6,7.5,15.6L7.5,15.6z M9.7,13.9c-0.3-0.9-1.1-1.6-2.1-1.6S5.6,13,5.4,13.9H2.2V11
	c0-0.6,0.5-1.1,1.1-1.1h35.5c0.6,0,1.1,0.5,1.1,1.1v2.9h-1.7v-2.1c0-0.3-0.3-0.6-0.6-0.6H32c-0.3,0-0.6,0.3-0.6,0.6v2.1h-5.7
	c-1.5-0.7-3.1-1.1-4.7-1.1c-1.7,0-3.3,0.4-4.7,1.1H9.7L9.7,13.9z M32.6,13.9v-1.5h4.3v1.5H32.6L32.6,13.9z M3.3,32.9
	c-0.6,0-1.1-0.5-1.1-1.1v-0.2h10.7c0.4,0.5,0.9,0.9,1.4,1.3H3.3z M11,24c0-5.5,4.5-10,10-10c2.8,0,5.6,1.2,7.5,3.4
	c0.2,0.2,0.6,0.3,0.8,0c0.2-0.2,0.3-0.6,0.1-0.8c-0.5-0.6-1.1-1.1-1.7-1.5h12.2v15.3h-9.7c0.9-1.3,1.5-2.7,1.8-4.3h1.5
	c0.9,0,1.6-0.7,1.6-1.6v-1.5c0-0.9-0.7-1.6-1.6-1.6h-1.6c-0.2-0.9-0.5-1.8-1-2.7c-0.2-0.3-0.5-0.4-0.8-0.2c-0.3,0.2-0.4,0.5-0.2,0.8
	c0.7,1.4,1.1,3,1.1,4.6c0,5.5-4.5,10-10,10C15.5,33.9,11,29.5,11,24L11,24z M32,22.7h1.4c0.2,0,0.4,0.2,0.4,0.4v1.5
	c0,0.2-0.2,0.4-0.4,0.4h-1.4c0-0.3,0-0.6,0-0.9C32.1,23.5,32.1,23.1,32,22.7L32,22.7z M38.7,32.9H27.7c0.5-0.4,1-0.8,1.4-1.3h10.7
	v0.2C39.8,32.4,39.3,32.9,38.7,32.9L38.7,32.9z"/>
<path class="st1" d="M13.2,24c0-4.3,3.5-7.8,7.8-7.8s7.8,3.5,7.8,7.8c0,4.3-3.5,7.8-7.8,7.8S13.2,28.3,13.2,24L13.2,24z M14.2,24
	c0,3.8,3.1,6.8,6.8,6.8s6.8-3.1,6.8-6.8s-3.1-6.8-6.8-6.8S14.2,20.2,14.2,24z"/>
<path class="st1" d="M15.6,24c0-3,2.4-5.4,5.4-5.4c3,0,5.4,2.4,5.4,5.4c0,3-2.4,5.4-5.4,5.4S15.6,26.9,15.6,24z M16.5,24
	c0,2.5,2,4.5,4.5,4.5s4.5-2,4.5-4.5c0-2.5-2-4.5-4.5-4.5S16.5,21.5,16.5,24z"/>
</svg>
