<?xml version="1.0" encoding="utf-8"?>
<!-- Generator: Adobe Illustrator 24.2.3, SVG Export Plug-In . SVG Version: 6.00 Build 0)  -->
<svg version="1.1" id="Capa_1" xmlns="http://www.w3.org/2000/svg" xmlns:xlink="http://www.w3.org/1999/xlink" x="0px" y="0px"
	 viewBox="0 0 512 512" style="enable-background:new 0 0 512 512;" xml:space="preserve">
<style type="text/css">
	.st0{fill:#1DA1F2;}
</style>
<g>
	<g>
		<path class="st0" d="M308.5,263.9l-18.2-8.2c-5.9-2.6-10.6-7.3-13.2-13.2l-8.2-18.2c-1.2-2.7-3.9-4.4-6.8-4.4
			c-3,0-5.6,1.7-6.8,4.4l-8.2,18.2c-2.6,5.9-7.3,10.6-13.2,13.2l-18.2,8.2c-2.7,1.2-4.4,3.9-4.4,6.8s1.7,5.6,4.4,6.8l18.2,8.2
			c5.9,2.6,10.6,7.3,13.2,13.2l8.2,18.2c1.2,2.7,3.9,4.4,6.8,4.4c3,0,5.6-1.7,6.8-4.4l8.2-18.2c2.6-5.9,7.3-10.6,13.2-13.2l18.2-8.2
			c2.7-1.2,4.4-3.9,4.4-6.8S311.2,265.1,308.5,263.9z M284.1,272.1c-9.2,4.1-16.6,11.5-20.7,20.7l-1.3,3l-1.3-3
			c-4.1-9.2-11.5-16.6-20.7-20.7l-3-1.3l3-1.3c9.2-4.1,16.6-11.5,20.7-20.7l1.3-3l1.3,3c4.1,9.2,11.5,16.6,20.7,20.7l3,1.3
			L284.1,272.1z"/>
	</g>
</g>
<g>
	<g>
		<path class="st0" d="M98,73.6l-18.2-8.2c-5.9-2.6-10.6-7.3-13.2-13.2L58.4,34c-1.2-2.7-3.9-4.4-6.8-4.4S46,31.3,44.8,34l-8.2,18.2
			c-2.6,5.9-7.3,10.6-13.2,13.2L5.1,73.6c-2.7,1.2-4.4,3.9-4.4,6.8s1.7,5.6,4.4,6.8l18.2,8.2c5.9,2.6,10.6,7.3,13.2,13.2l8.2,18.2
			c1.2,2.7,3.9,4.4,6.8,4.4s5.6-1.7,6.8-4.4l8.2-18.2c2.6-5.9,7.3-10.6,13.2-13.2L98,87.3c2.7-1.2,4.4-3.9,4.4-6.8
			C102.4,77.5,100.6,74.9,98,73.6z M73.6,81.8C64.4,86,57,93.3,52.9,102.6l-1.3,3l-1.3-3C46.1,93.3,38.7,86,29.5,81.8l-3-1.3l3-1.3
			c9.2-4.1,16.6-11.5,20.7-20.7l1.3-3l1.3,3C57,67.6,64.4,75,73.6,79.1l3,1.3L73.6,81.8z"/>
	</g>
</g>
<g>
	<g>
		<path class="st0" d="M506.9,41.2l-16.3-7.3c-5.1-2.3-9.1-6.3-11.4-11.4l-7.3-16.3c-1.2-2.7-3.9-4.4-6.8-4.4s-5.6,1.7-6.8,4.4
			L451,22.5c-2.3,5.1-6.3,9.1-11.4,11.4l-16.3,7.3c-2.7,1.2-4.4,3.9-4.4,6.8s1.7,5.6,4.4,6.8l16.3,7.3c5.1,2.3,9.1,6.3,11.4,11.4
			l7.3,16.3c1.2,2.7,3.9,4.4,6.8,4.4s5.6-1.7,6.8-4.4l7.3-16.3c2.3-5.1,6.3-9.1,11.4-11.4l16.3-7.3c2.7-1.2,4.4-3.9,4.4-6.8
			C511.3,45,509.6,42.4,506.9,41.2z M484.5,48.4c-8.4,3.8-15.1,10.5-18.9,18.9l-0.5,1l-0.5-1c-3.8-8.4-10.5-15.1-18.9-18.9l-1-0.5
			l1-0.5c8.4-3.8,15.1-10.5,18.9-18.9l0.5-1l0.5,1c3.8,8.4,10.5,15.1,18.9,18.9l1,0.5L484.5,48.4z"/>
	</g>
</g>
<g>
	<g>
		<path class="st0" d="M466.8,178.4c-1.4-1.4-3.3-2.2-5.3-2.2h-46V85.5c0-1.2-0.3-2.4-0.8-3.4c0,0,0,0,0-0.1L394,41.1l0,0L375.7,5.3
			c-1.3-2.5-3.9-4.1-6.7-4.1s-5.4,1.6-6.7,4.1l-18.1,35.8l0,0L323.5,82c0,0,0,0,0,0.1c-0.5,1-0.8,2.2-0.8,3.4V125
			c0,4.1,3.4,7.5,7.5,7.5s7.5-3.4,7.5-7.5V93h62.9v83.2h-62.9V155c0-4.1-3.4-7.5-7.5-7.5s-7.5,3.4-7.5,7.5v21.3H308V7.5
			c0-4.1-3.4-7.5-7.5-7.5h-76.9c-4.1,0-7.5,3.4-7.5,7.5v32.3c0,4.1,3.4,7.5,7.5,7.5s7.5-3.4,7.5-7.5V15H293v32.3h-16.1
			c-4.1,0-7.5,3.4-7.5,7.5s3.4,7.5,7.5,7.5H293v18.4h-25.7c-4.1,0-7.5,3.4-7.5,7.5s3.4,7.5,7.5,7.5H293v18.4h-16.1
			c-4.1,0-7.5,3.4-7.5,7.5s3.4,7.5,7.5,7.5H293v18.4h-25.7c-4.1,0-7.5,3.4-7.5,7.5s3.4,7.5,7.5,7.5H293v13.9h-61.9V69.7
			c0-4.1-3.4-7.5-7.5-7.5s-7.5,3.4-7.5,7.5v106.5h-18.8l-5.1-32.3c3.5-0.6,6.2-3.7,6.2-7.4v-28c0-3.6-2.5-6.5-5.8-7.3
			c3.7-6.3,5.8-13.6,5.8-21.2c0-3.4,0-13.7-18.1-46.9C171.8,17.2,163.3,4,163,3.4c-1.4-2.1-3.8-3.4-6.3-3.4c-2.6,0-4.9,1.3-6.3,3.4
			C150,4,141.6,17.2,133,33.1c-18.1,33.2-18.1,43.5-18.1,46.9c0,7.6,2.1,14.9,5.8,21.2c-3.3,0.8-5.8,3.7-5.8,7.3v28
			c0,3.7,2.7,6.8,6.2,7.4l-5.1,32.3H89.8c-3.1,0-5.9,1.9-7,4.8c-11.3,29.1-32.1,79.6-43.6,107.2c-2.5,5.9-1.8,12.7,1.8,18.1
			s9.6,8.6,16,8.6h23.6c3.4,17.7,13.7,68.8,21.7,89.9c7.5,19.8,25.3,31.4,51.3,33.4c10.9,0.9,21.1-0.2,27.7-1.2l12.2,68.9
			c0.6,3.6,3.7,6.2,7.4,6.2h204c2.2,0,4.3-1,5.7-2.6c1.4-1.7,2-3.9,1.7-6l-18.5-119.7c11.2-16.3,21.2-32.6,29.9-48.5
			c2-3.6,0.7-8.2-3-10.2c-3.6-2-8.2-0.7-10.2,3c-8.9,16.2-19.3,32.9-30.8,49.6c-1.1,1.6-1.5,3.5-1.2,5.4l17.6,114h-189l-12.4-70.2
			c-0.4-2-1.5-3.8-3.3-5c-1.7-1.1-3.9-1.5-5.9-1c-0.6,0.1-56.1,13.2-69.3-21.5c-9.1-24-22-92.8-22.1-93.5c-0.7-3.5-3.8-6.1-7.4-6.1
			H57c-2.1,0-3.2-1.3-3.5-1.9c-0.4-0.6-1.2-2.1-0.4-4c10.9-26.1,30.2-73,41.9-102.7h358.9c-1.4,34.1-11.4,71.2-29.8,110.4
			c-1.8,3.7-0.1,8.2,3.6,10s8.2,0.1,10-3.6c20.6-44.1,31.2-85.9,31.4-124.2C469,181.7,468.2,179.8,466.8,178.4z M369.1,25.2l6,11.8
			h-11.9L369.1,25.2z M342.4,77.9l13.1-26h27.1l13.1,26H342.4z M131.2,176.1l5.1-32.2h40.8l5.1,32.2H131.2z M183.5,129h-53.6v-13
			h7.7h38.2h7.7L183.5,129L183.5,129z M173.4,101H140c-6.4-5.1-10.1-12.8-10.1-21c0-5.9,7.4-26.4,26.8-58.3
			c3,5.1,6.8,11.6,10.6,18.5C181.9,67.1,183.5,77,183.5,80C183.5,88.2,179.7,95.9,173.4,101z"/>
	</g>
</g>
</svg>
