<?xml version="1.0" encoding="utf-8"?>
<!-- Generator: Adobe Illustrator 24.2.3, SVG Export Plug-In . SVG Version: 6.00 Build 0)  -->
<svg version="1.1" id="Capa_1" xmlns="http://www.w3.org/2000/svg" xmlns:xlink="http://www.w3.org/1999/xlink" x="0px" y="0px"
	 viewBox="0 0 34 34" style="enable-background:new 0 0 34 34;" xml:space="preserve">
<style type="text/css">
	.st0{fill-rule:evenodd;clip-rule:evenodd;fill:#1DA1F2;}
</style>
<path class="st0" d="M9.6,6.1L11.1,7c0.3,0.2,0.3,0.5,0.1,0.8c-2.2,2.6-4.1,5.5-4.1,9c2.9,0,6,2.4,6,5.5c0,4.3-3.5,7-7,6.5
	c-3.5-0.5-5.5-3-6-6c-1-6.8,2.8-13,8.5-16.6C8.9,6,9.3,6,9.6,6.1z M30.5,6.1L32,7c0.3,0.2,0.3,0.5,0.1,0.8c-2.2,2.6-4.1,5.5-4.1,9
	c2.9,0,6,2.4,6,5.5c0,4.3-3.5,7-7,6.5c-3.5-0.5-5.5-3-6-6c-1-6.8,2.8-13,8.5-16.6C29.8,6,30.2,6,30.5,6.1z"/>
</svg>
