<?xml version="1.0" encoding="utf-8"?>
<!-- Generator: Adobe Illustrator 24.2.3, SVG Export Plug-In . SVG Version: 6.00 Build 0)  -->
<svg version="1.1" id="Capa_1" xmlns="http://www.w3.org/2000/svg" xmlns:xlink="http://www.w3.org/1999/xlink" x="0px" y="0px"
	 viewBox="0 0 40 40" style="enable-background:new 0 0 40 40;" xml:space="preserve">
<style type="text/css">
	.st0{fill:#1DA1F2;}
	.st1{fill-rule:evenodd;clip-rule:evenodd;fill:#1DA1F2;fill-opacity:5.000000e-02;}
</style>
<path class="st0" d="M35.4,28.3c-0.2-0.1-0.5,0-0.6,0.1l-6.4,6.4c-0.2,0.2-0.2,0.4-0.1,0.6c0.1,0.2,0.3,0.4,0.5,0.4h6.4
	c0.3,0,0.6-0.3,0.6-0.6v-6.4C35.8,28.6,35.6,28.3,35.4,28.3L35.4,28.3z M30.2,34.6l4.4-4.4v4.4H30.2z"/>
<path class="st0" d="M39.6,18.8c-0.2-0.1-0.5,0-0.6,0.1l-1.8,1.8v-12c0-0.3-0.3-0.6-0.6-0.6h-4.5l1.6-1.6c0,0,0,0,0,0l1.6-1.6
	c0.3-0.3,0.5-0.8,0.5-1.3c0-0.5-0.2-0.9-0.5-1.3l-1.8-1.8C33.2,0.2,32.7,0,32.3,0c-0.5,0-0.9,0.2-1.3,0.5l-1.6,1.6L27.5,4l-4.1,4.1
	H5.2V2.3c0-0.3-0.3-0.6-0.6-0.6C2.1,1.7,0,3.8,0,6.3v25c0,0,0,0.1,0,0.1c0.1,1.1,0.5,2.1,1.3,2.9c0.8,0.8,1.9,1.3,3.1,1.3h17.9
	L19,39c-0.2,0.2-0.2,0.4-0.1,0.6c0.1,0.2,0.3,0.4,0.5,0.4h20c0.3,0,0.6-0.3,0.6-0.6V19.4C40,19.1,39.9,18.9,39.6,18.8L39.6,18.8z
	 M31.8,1.4c0.2-0.2,0.6-0.2,0.9,0l1.8,1.8c0.2,0.2,0.2,0.6,0,0.9l-1.2,1.2l-2.7-2.7L31.8,1.4L31.8,1.4z M29.8,3.4l2.7,2.7l-1.1,1.1
	l-2.7-2.7L29.8,3.4L29.8,3.4z M38.8,26h-1.1c-0.3,0-0.6,0.3-0.6,0.6c0,0.3,0.3,0.6,0.6,0.6h1.1v1.8h-1.1c-0.3,0-0.6,0.3-0.6,0.6
	s0.3,0.6,0.6,0.6h1.1v1.8h-1.1c-0.3,0-0.6,0.3-0.6,0.6c0,0.3,0.3,0.6,0.6,0.6h1.1v1.8h-1.1c-0.3,0-0.6,0.3-0.6,0.6
	c0,0.3,0.3,0.6,0.6,0.6h1.1v2.8h-18l5.9-5.9c0.2-0.2,0.2-0.6,0-0.8c0,0-0.1,0-0.1-0.1c-0.2-0.2-0.5-0.1-0.7,0.1l-2.4,2.4H4.4
	c-1.8,0-3.2-1.4-3.3-3.2c0-0.1,0-0.2,0-0.3c0,0,0,0,0,0c0-0.1,0-0.1,0-0.2c0,0,0,0,0,0c0,0,0-0.1,0-0.1c0,0,0,0,0,0c0,0,0-0.1,0-0.1
	c0,0,0,0,0-0.1c0,0,0-0.1,0-0.1c0,0,0-0.1,0-0.1c0,0,0,0,0-0.1c0,0,0-0.1,0-0.1c0,0,0,0,0,0c0,0,0-0.1,0.1-0.1c0,0,0,0,0,0
	c0.5-1,1.3-1.7,2.4-1.9c0,0,0,0,0,0c0,0,0.1,0,0.1,0c0,0,0,0,0,0c0,0,0.1,0,0.1,0c0,0,0,0,0,0c0,0,0.1,0,0.1,0c0,0,0,0,0,0
	c0.1,0,0.1,0,0.2,0c0.3,0,0.6-0.3,0.6-0.6V23c0-0.3-0.3-0.6-0.6-0.6S4,22.7,4,23v3.7c-1,0.1-1.9,0.6-2.6,1.3
	c-0.1,0.1-0.1,0.2-0.2,0.2V6.3c0-1.7,1.2-3.1,2.9-3.4v17.8c0,0.3,0.3,0.6,0.6,0.6c0.3,0,0.6-0.3,0.6-0.6V9.3h17.1L19,12.6
	c-0.2,0.2-0.2,0.6,0,0.8c0.2,0.2,0.6,0.2,0.8,0l4.2-4.3c0,0,0,0,0,0l3.8-3.9L30.6,8l-0.3,0.3c0,0,0,0,0,0L18.5,20.2l-2.7-2.7
	l2.3-2.3c0.2-0.2,0.2-0.6,0-0.8c-0.2-0.2-0.6-0.2-0.8,0l-2.7,2.8c0,0,0,0,0,0c0,0,0,0,0,0c0,0,0,0,0,0c0,0,0,0,0,0c0,0,0,0,0,0
	c0,0,0,0,0,0c0,0,0,0,0,0c0,0,0,0,0,0l-1.1,3.3l-0.8,2.2c0,0,0,0.1,0,0.1h-2c-0.3,0-0.6,0.3-0.6,0.6c0,0.3,0.3,0.6,0.6,0.6h16.3
	c0.3,0,0.6-0.3,0.6-0.6c0-0.3-0.3-0.6-0.6-0.6H15.1l3.6-1.3c0,0,0,0,0,0c0,0,0,0,0,0c0,0,0,0,0,0c0,0,0,0,0,0c0,0,0,0,0,0
	c0,0,0,0,0,0c0,0,0,0,0,0c0,0,0,0,0,0L31,9.3h5.1v12.6l-8.4,8.4c-0.2,0.2-0.2,0.6,0,0.8c0,0,0,0,0,0c0.1,0.1,0.2,0.1,0.4,0.1
	c0.1,0,0.3,0,0.4-0.1c0,0,0,0,0,0l0,0l10.3-10.4V26z M17.4,20.8l-1.7,0.6l-1.1-1.1l0.6-1.7L17.4,20.8z"/>
<path class="st1" d="M39.6,18.8c-0.2-0.1-0.5,0-0.6,0.1l-1.8,1.8v-12c0-0.3-0.3-0.6-0.6-0.6h-4.5l1.6-1.6l0,0l1.6-1.6
	c0.3-0.3,0.5-0.8,0.5-1.3c0-0.5-0.2-0.9-0.5-1.3l-1.8-1.8C33.2,0.2,32.7,0,32.3,0c-0.5,0-0.9,0.2-1.3,0.5l-1.6,1.6L27.5,4l-4.1,4.1
	H5.2V2.3c0-0.3-0.3-0.6-0.6-0.6C2.1,1.7,0,3.8,0,6.3v25c0,0,0,0.1,0,0.1c0.1,1.1,0.5,2.1,1.3,2.9c0.8,0.8,1.9,1.3,3.1,1.3h17.9
	L19,39c-0.2,0.2-0.2,0.4-0.1,0.6c0.1,0.2,0.3,0.4,0.5,0.4h20c0.3,0,0.6-0.3,0.6-0.6V19.4C40,19.1,39.9,18.9,39.6,18.8z M31.8,1.4
	c0.2-0.2,0.6-0.2,0.9,0l1.8,1.8c0.2,0.2,0.2,0.6,0,0.9l-1.2,1.2l-2.7-2.7L31.8,1.4z M29.8,3.4l2.7,2.7l-1.1,1.1l-2.7-2.7L29.8,3.4z
	 M17.4,20.8l-1.7,0.6l-1.1-1.1l0.6-1.7L17.4,20.8z M34.8,29.2l-5.7,5.7c-0.1,0.1,0,0.2,0.1,0.2H35v-5.8C35,29.2,34.9,29.1,34.8,29.2
	z M15,17.5l3.5,3.5l13-13L28,4.5L15,17.5z"/>
</svg>
