<?xml version="1.0" encoding="utf-8"?>
<!-- Generator: Adobe Illustrator 24.2.3, SVG Export Plug-In . SVG Version: 6.00 Build 0)  -->
<svg version="1.1" id="Capa_1" xmlns="http://www.w3.org/2000/svg" xmlns:xlink="http://www.w3.org/1999/xlink" x="0px" y="0px"
	 viewBox="0 0 113.97 113.2" style="enable-background:new 0 0 113.97 113.2;" xml:space="preserve">
<style type="text/css">
	.st0{fill:#FFFFFF;}
	.st1{font-family:'ZebraReg';}
	.st2{font-size:12.0246px;}
	.st3{font-family:'ClementePDac-ExtraLight';}
	.st4{font-size:11.0454px;}
</style>
<g>
	<g id="XMLID_166_">
		<g id="XMLID_190_">
			<path id="XMLID_197_" class="st0" d="M18.66,89.57c0.22,0.17,0.43,0.4,0.62,0.68c0.42,0.66,0.82,1.81,1.31,3.27
				c1.16,3.4,2.76,8.07,5.92,9.99c2.62,1.6,5.12,1.21,6.46,0.4c1.01-0.62,1.56-1.56,1.5-2.56c-0.14-2.34-1.61-3.14-2.83-3.12
				c-1.25,0.02-2.54,0.9-2.56,2.52c-0.02,0.88,0.45,1.25,0.73,1.39c0.43,0.21,0.92,0.16,1.13-0.02c0.07-0.06,0.17-0.19,0.1-0.43
				c-0.06-0.22,0.07-0.45,0.28-0.51c0.22-0.06,0.45,0.07,0.5,0.28c0.14,0.51,0,0.98-0.37,1.29c-0.5,0.42-1.31,0.47-2,0.14
				c-0.78-0.38-1.21-1.16-1.19-2.14c0.05-2.13,1.77-3.3,3.37-3.34c1.71-0.02,3.5,1.16,3.66,3.9c0.07,1.32-0.62,2.54-1.89,3.32
				c-2.02,1.24-4.89,1.08-7.3-0.4c-3.42-2.08-5.06-6.91-6.27-10.43c-0.46-1.35-0.85-2.52-1.23-3.08c-0.19-0.27-0.38-0.47-0.61-0.59
				c-0.07-0.25-0.21-0.5-0.43-0.73c-0.47-0.48-1.5-1.14-2.7-1.89c-3.12-1.97-7.4-4.68-8.65-8.51C5.3,76.26,5.8,73.4,7.43,71.68
				c1.04-1.09,2.35-1.5,3.61-1.13c2.6,0.77,3.35,2.8,2.95,4.48c-0.38,1.57-1.91,3.01-3.96,2.59c-0.95-0.2-1.61-0.8-1.81-1.66
				c-0.17-0.75,0.06-1.55,0.58-1.94c0.38-0.3,0.87-0.32,1.32-0.07c0.2,0.11,0.27,0.36,0.17,0.56c-0.11,0.2-0.36,0.27-0.56,0.17
				c-0.22-0.12-0.36-0.05-0.45,0.01c-0.24,0.16-0.38,0.63-0.28,1.1c0.07,0.31,0.31,0.85,1.18,1.03c1.57,0.32,2.71-0.74,3.01-1.97
				c0.3-1.2-0.15-2.83-2.38-3.49c-0.97-0.28-1.98,0.05-2.8,0.92c-1.09,1.14-2.02,3.51-1.06,6.46c1.15,3.55,5.28,6.16,8.3,8.07
				c1.3,0.82,2.31,1.46,2.86,2.03C18.37,89.05,18.54,89.31,18.66,89.57z"/>
			<path id="XMLID_196_" class="st0" d="M9.19,47.59c0.01,0.28-0.04,0.59-0.14,0.92c-0.24,0.74-0.89,1.77-1.71,3.08
				c-1.91,3.04-4.5,7.2-4.02,10.92c0.41,3.07,2.25,4.8,3.73,5.36c1.1,0.42,2.17,0.26,2.92-0.41c1.72-1.56,1.42-3.23,0.64-4.2
				c-0.79-0.98-2.28-1.45-3.55-0.46c-0.69,0.53-0.68,1.14-0.62,1.44c0.11,0.47,0.45,0.83,0.73,0.87c0.1,0.02,0.25,0.02,0.4-0.19
				c0.14-0.19,0.38-0.22,0.57-0.09c0.19,0.14,0.22,0.4,0.09,0.58C7.91,65.83,7.47,66.02,7,65.92c-0.63-0.12-1.19-0.74-1.36-1.5
				c-0.2-0.85,0.14-1.68,0.92-2.28c1.67-1.29,3.65-0.66,4.68,0.58c1.09,1.34,1.29,3.5-0.73,5.33c-0.98,0.89-2.34,1.1-3.75,0.57
				C4.53,67.8,2.86,65.44,2.5,62.6c-0.52-4,2.18-8.32,4.15-11.46c0.75-1.21,1.41-2.25,1.62-2.9c0.1-0.31,0.12-0.59,0.07-0.85
				c0.15-0.21,0.25-0.47,0.3-0.8c0.09-0.67-0.05-1.91-0.21-3.32c-0.42-3.7-1-8.77,1.18-12.15c1.55-2.39,4.06-3.79,6.41-3.56
				c1.49,0.15,2.62,0.93,3.13,2.15c1.03,2.54-0.07,4.39-1.63,5.12c-1.45,0.68-3.51,0.37-4.47-1.52c-0.45-0.88-0.38-1.77,0.15-2.45
				c0.47-0.61,1.24-0.92,1.87-0.75c0.47,0.12,0.79,0.48,0.88,1c0.04,0.22-0.11,0.43-0.32,0.48c-0.22,0.04-0.43-0.11-0.47-0.33
				c-0.05-0.26-0.19-0.32-0.28-0.35c-0.27-0.09-0.73,0.09-1.03,0.47c-0.2,0.25-0.46,0.78-0.06,1.57c0.73,1.45,2.26,1.68,3.39,1.15
				c1.11-0.52,2.09-1.89,1.21-4.06c-0.38-0.94-1.27-1.53-2.45-1.65c-1.56-0.15-3.97,0.59-5.66,3.19c-2.03,3.12-1.46,8.02-1.05,11.6
				c0.17,1.53,0.31,2.75,0.21,3.53C9.41,47.04,9.32,47.33,9.19,47.59z"/>
			<path id="XMLID_195_" class="st0" d="M35.71,13.92c-0.22,0.19-0.48,0.35-0.79,0.46c-0.73,0.27-1.92,0.41-3.44,0.57
				c-3.54,0.4-8.38,0.93-10.94,3.61c-2.13,2.24-2.3,4.79-1.82,6.29c0.37,1.14,1.15,1.88,2.13,2.05c2.28,0.38,3.39-0.89,3.64-2.1
				c0.26-1.24-0.3-2.7-1.87-3.09c-0.84-0.21-1.3,0.16-1.5,0.41c-0.3,0.38-0.36,0.88-0.22,1.11c0.05,0.09,0.14,0.21,0.4,0.2
				c0.22-0.01,0.42,0.16,0.42,0.4c0.01,0.22-0.16,0.42-0.4,0.43c-0.52,0.02-0.94-0.21-1.15-0.66c-0.3-0.58-0.16-1.41,0.31-2
				c0.54-0.68,1.39-0.94,2.33-0.69c2.04,0.52,2.78,2.49,2.46,4.07c-0.35,1.7-1.91,3.21-4.57,2.75c-1.3-0.22-2.3-1.18-2.77-2.61
				c-0.74-2.26,0.05-5.06,2-7.12c2.76-2.91,7.77-3.47,11.44-3.87c1.4-0.16,2.61-0.28,3.24-0.52c0.31-0.11,0.54-0.27,0.71-0.47
				c0.25-0.01,0.52-0.1,0.8-0.27c0.57-0.35,1.44-1.23,2.43-2.24c2.6-2.65,6.15-6.26,10.12-6.65c2.81-0.26,5.46,0.85,6.74,2.86
				c0.82,1.26,0.92,2.66,0.28,3.82c-1.31,2.4-3.44,2.69-4.98,1.91c-1.42-0.73-2.48-2.55-1.61-4.48c0.41-0.89,1.13-1.41,1.99-1.41
				c0.75,0,1.49,0.41,1.74,1c0.2,0.45,0.12,0.93-0.22,1.32c-0.15,0.17-0.41,0.19-0.57,0.04c-0.17-0.15-0.19-0.41-0.04-0.58
				c0.17-0.2,0.14-0.35,0.09-0.43c-0.07-0.26-0.5-0.52-0.97-0.52c-0.31,0-0.89,0.12-1.25,0.93c-0.67,1.49,0.11,2.83,1.23,3.4
				c1.09,0.56,2.77,0.48,3.89-1.57c0.48-0.89,0.4-1.97-0.26-2.97c-0.85-1.32-2.93-2.77-5.99-2.49c-3.68,0.35-7.1,3.85-9.62,6.4
				c-1.08,1.1-1.93,1.97-2.59,2.36C36.28,13.74,35.99,13.86,35.71,13.92z"/>
			<path id="XMLID_194_" class="st0" d="M78.26,13.92c-0.27-0.06-0.56-0.16-0.85-0.35c-0.66-0.41-1.51-1.27-2.59-2.36
				c-2.51-2.55-5.94-6.05-9.62-6.4c-3.04-0.28-5.14,1.16-5.99,2.49c-0.64,1-0.74,2.08-0.26,2.97c1.13,2.05,2.8,2.13,3.89,1.57
				c1.11-0.57,1.89-1.92,1.23-3.4c-0.36-0.8-0.94-0.93-1.25-0.93c-0.48,0-0.9,0.26-1,0.52c-0.04,0.1-0.07,0.24,0.09,0.43
				c0.15,0.17,0.14,0.43-0.04,0.58C61.69,9.19,61.43,9.18,61.29,9c-0.33-0.4-0.42-0.88-0.22-1.32c0.26-0.61,0.98-1,1.74-1
				c0.87,0,1.6,0.52,1.99,1.41c0.87,1.93-0.17,3.75-1.61,4.48c-1.52,0.78-3.66,0.5-4.98-1.91c-0.63-1.16-0.53-2.55,0.28-3.82
				c1.29-1.99,3.94-3.12,6.74-2.86c3.97,0.37,7.52,4,10.12,6.65c0.99,1.01,1.86,1.89,2.43,2.24c0.28,0.17,0.54,0.25,0.8,0.27
				c0.17,0.19,0.4,0.35,0.71,0.47c0.63,0.24,1.84,0.37,3.24,0.52c3.66,0.41,8.68,0.97,11.44,3.87c1.96,2.05,2.74,4.85,2,7.12
				c-0.47,1.44-1.49,2.39-2.77,2.61c-2.67,0.46-4.22-1.05-4.57-2.75c-0.32-1.58,0.42-3.55,2.46-4.07c0.94-0.24,1.79,0.01,2.33,0.69
				c0.47,0.61,0.61,1.42,0.31,2c-0.22,0.43-0.64,0.67-1.15,0.66c-0.22-0.01-0.4-0.2-0.4-0.43c0.01-0.22,0.2-0.41,0.42-0.4
				c0.26,0.01,0.35-0.11,0.4-0.2c0.14-0.25,0.07-0.74-0.22-1.11c-0.2-0.25-0.64-0.63-1.5-0.41c-1.56,0.4-2.12,1.86-1.87,3.09
				c0.25,1.21,1.35,2.49,3.64,2.1c0.99-0.17,1.77-0.92,2.13-2.05c0.5-1.5,0.31-4.05-1.82-6.29c-2.56-2.7-7.4-3.23-10.94-3.61
				c-1.52-0.17-2.72-0.3-3.44-0.57C78.73,14.26,78.47,14.1,78.26,13.92z"/>
			<path id="XMLID_193_" class="st0" d="M104.78,47.59c-0.14-0.26-0.22-0.54-0.27-0.89c-0.1-0.78,0.04-1.99,0.21-3.53
				c0.41-3.58,0.98-8.48-1.05-11.6c-1.68-2.6-4.1-3.34-5.66-3.19c-1.18,0.11-2.07,0.72-2.45,1.65c-0.88,2.17,0.1,3.54,1.21,4.06
				c1.14,0.53,2.66,0.3,3.39-1.15c0.4-0.79,0.12-1.32-0.06-1.57c-0.3-0.38-0.75-0.54-1.03-0.47c-0.1,0.02-0.24,0.09-0.28,0.35
				c-0.04,0.22-0.26,0.37-0.47,0.33c-0.22-0.04-0.37-0.26-0.32-0.48c0.1-0.52,0.42-0.88,0.88-1c0.63-0.16,1.39,0.15,1.87,0.75
				c0.53,0.68,0.59,1.58,0.15,2.45c-0.95,1.89-3.01,2.2-4.47,1.52c-1.56-0.73-2.66-2.59-1.63-5.12c0.5-1.23,1.65-2.02,3.13-2.15
				c2.35-0.22,4.86,1.18,6.41,3.56c2.19,3.38,1.61,8.44,1.18,12.15c-0.16,1.42-0.31,2.65-0.21,3.32c0.04,0.33,0.15,0.59,0.3,0.8
				c-0.04,0.25-0.02,0.53,0.07,0.85c0.21,0.64,0.87,1.68,1.62,2.9c1.97,3.16,4.67,7.46,4.15,11.46c-0.37,2.83-2.04,5.2-4.24,6.03
				c-1.4,0.52-2.76,0.32-3.75-0.57c-2.02-1.83-1.82-4-0.73-5.33c1.01-1.25,3.01-1.88,4.68-0.58c0.78,0.59,1.1,1.42,0.92,2.28
				c-0.17,0.75-0.72,1.37-1.36,1.5c-0.47,0.1-0.92-0.09-1.23-0.51c-0.14-0.19-0.1-0.45,0.09-0.58c0.19-0.14,0.43-0.1,0.57,0.09
				c0.15,0.21,0.3,0.21,0.4,0.19c0.27-0.05,0.62-0.4,0.73-0.87c0.07-0.31,0.09-0.9-0.62-1.44c-1.27-0.99-2.76-0.52-3.55,0.46
				c-0.78,0.95-1.08,2.62,0.64,4.2c0.74,0.68,1.81,0.83,2.92,0.41c1.47-0.54,3.33-2.28,3.73-5.36c0.48-3.7-2.12-7.87-4.02-10.92
				c-0.82-1.31-1.46-2.34-1.71-3.08C104.82,48.17,104.77,47.88,104.78,47.59z"/>
			<path id="XMLID_192_" class="st0" d="M95.31,89.57c0.11-0.26,0.28-0.52,0.52-0.77c0.53-0.57,1.56-1.21,2.86-2.03
				c3.02-1.91,7.15-4.52,8.3-8.07c0.95-2.95,0.02-5.32-1.06-6.46c-0.82-0.87-1.84-1.19-2.8-0.92c-2.23,0.66-2.67,2.29-2.38,3.49
				c0.3,1.23,1.42,2.3,3.01,1.97c0.85-0.17,1.1-0.72,1.18-1.03c0.11-0.47-0.05-0.94-0.28-1.1c-0.09-0.06-0.21-0.14-0.45-0.01
				c-0.2,0.11-0.45,0.04-0.56-0.17c-0.11-0.2-0.02-0.45,0.17-0.56c0.46-0.25,0.94-0.22,1.32,0.07c0.52,0.4,0.75,1.2,0.58,1.94
				c-0.2,0.85-0.85,1.46-1.81,1.66c-2.05,0.43-3.58-1.01-3.96-2.59c-0.41-1.68,0.33-3.71,2.95-4.48c1.26-0.37,2.57,0.04,3.61,1.13
				c1.63,1.72,2.13,4.58,1.25,7.29c-1.24,3.84-5.52,6.53-8.65,8.51c-1.2,0.75-2.24,1.41-2.7,1.89c-0.22,0.24-0.37,0.48-0.43,0.73
				c-0.22,0.12-0.42,0.31-0.61,0.59c-0.37,0.57-0.77,1.73-1.23,3.08c-1.2,3.53-2.86,8.34-6.27,10.43c-2.41,1.47-5.28,1.62-7.3,0.4
				c-1.27-0.78-1.97-1.99-1.89-3.32c0.16-2.74,1.96-3.94,3.66-3.9c1.6,0.02,3.32,1.21,3.37,3.34c0.02,0.98-0.41,1.77-1.19,2.14
				c-0.68,0.33-1.51,0.28-2-0.14c-0.37-0.31-0.51-0.78-0.37-1.29c0.06-0.22,0.28-0.35,0.5-0.28c0.22,0.06,0.35,0.28,0.28,0.51
				c-0.06,0.25,0.02,0.37,0.1,0.43c0.21,0.2,0.69,0.24,1.13,0.02c0.28-0.14,0.75-0.5,0.73-1.39c-0.04-1.63-1.31-2.5-2.56-2.52
				c-1.23-0.02-2.7,0.78-2.83,3.12c-0.06,1.01,0.5,1.94,1.5,2.56c1.34,0.82,3.84,1.21,6.46-0.4c3.17-1.93,4.75-6.58,5.92-9.99
				c0.5-1.46,0.89-2.61,1.31-3.27C94.88,89.97,95.09,89.74,95.31,89.57z"/>
			<path id="XMLID_191_" class="st0" d="M56.98,108.26c0.27-0.07,0.58-0.1,0.92-0.06c0.77,0.07,1.91,0.48,3.34,0.99
				c3.35,1.2,7.95,2.85,11.41,1.55c2.87-1.08,4.12-3.3,4.33-4.86c0.15-1.19-0.22-2.2-1.04-2.78c-1.89-1.35-3.43-0.68-4.17,0.3
				c-0.77,1-0.88,2.56,0.35,3.6c0.67,0.57,1.24,0.42,1.52,0.28c0.43-0.21,0.69-0.63,0.68-0.9c0-0.1-0.04-0.25-0.27-0.36
				c-0.21-0.09-0.31-0.33-0.21-0.54c0.09-0.21,0.33-0.31,0.53-0.21c0.47,0.21,0.75,0.61,0.77,1.09c0.02,0.66-0.46,1.34-1.14,1.67
				c-0.78,0.38-1.66,0.24-2.4-0.4c-1.62-1.36-1.45-3.47-0.47-4.74c1.04-1.37,3.08-2.05,5.3-0.47c1.08,0.77,1.57,2.07,1.39,3.56
				c-0.31,2.36-2.22,4.54-4.85,5.53c-3.74,1.41-8.49-0.3-11.97-1.53c-1.34-0.48-2.48-0.89-3.14-0.95c-0.32-0.02-0.61,0.01-0.84,0.11
				c-0.24-0.1-0.51-0.14-0.84-0.11c-0.67,0.06-1.82,0.47-3.14,0.95c-3.48,1.24-8.23,2.95-11.97,1.53c-2.65-0.99-4.54-3.17-4.85-5.53
				c-0.2-1.5,0.31-2.8,1.39-3.56c2.22-1.58,4.26-0.9,5.3,0.47c0.98,1.29,1.14,3.38-0.47,4.74c-0.74,0.63-1.62,0.78-2.4,0.4
				c-0.68-0.33-1.16-1.01-1.14-1.67c0.01-0.48,0.28-0.89,0.77-1.09c0.21-0.09,0.45,0.01,0.53,0.21c0.09,0.21,0,0.46-0.21,0.54
				c-0.27,0.1-0.31,0.25-0.31,0.35c-0.02,0.28,0.25,0.69,0.68,0.9c0.28,0.14,0.85,0.28,1.52-0.28c1.24-1.04,1.11-2.6,0.35-3.6
				c-0.74-0.98-2.29-1.65-4.17-0.3c-0.82,0.58-1.2,1.6-1.04,2.78c0.2,1.57,1.46,3.79,4.33,4.86c3.47,1.3,8.06-0.35,11.41-1.55
				c1.44-0.52,2.57-0.93,3.34-0.99C56.4,108.16,56.71,108.18,56.98,108.26z"/>
		</g>
		<g id="XMLID_182_">
			<path id="XMLID_189_" class="st0" d="M81.61,110.4c-0.21,0.02-0.42,0.06-0.63,0.1c-4.07,0.66-5.04-1.66-5.07-1.76
				c-0.02-0.05-0.02-0.1-0.02-0.15c0-0.16,0.1-0.32,0.26-0.38c0.21-0.09,0.45,0.02,0.53,0.24c0.02,0.07,0.79,1.81,4.18,1.25
				c0.14-0.02,0.26-0.04,0.4-0.06c0.1-0.09,0.19-0.19,0.3-0.27c2.54-2.34,1.68-4.02,1.65-4.1c-0.11-0.2-0.05-0.45,0.15-0.57
				c0.15-0.09,0.33-0.06,0.46,0.04c0.04,0.04,0.07,0.07,0.1,0.12c0.05,0.1,1.25,2.3-1.81,5.11
				C81.92,110.12,81.76,110.26,81.61,110.4z"/>
			<path id="XMLID_188_" class="st0" d="M32.36,110.4c-0.15-0.15-0.31-0.3-0.47-0.45c-3.04-2.81-1.86-5.02-1.81-5.11
				c0.02-0.05,0.06-0.09,0.1-0.12c0.12-0.1,0.31-0.12,0.46-0.04c0.2,0.11,0.26,0.37,0.15,0.57c-0.04,0.06-0.89,1.76,1.65,4.1
				c0.1,0.09,0.2,0.19,0.3,0.27c0.12,0.02,0.26,0.04,0.4,0.06c3.39,0.54,4.16-1.19,4.18-1.25c0.09-0.21,0.32-0.31,0.53-0.24
				c0.16,0.06,0.26,0.22,0.26,0.38c0,0.05-0.01,0.1-0.02,0.15c-0.04,0.1-1,2.43-5.07,1.76C32.78,110.46,32.57,110.44,32.36,110.4z"
				/>
			<path id="XMLID_187_" class="st0" d="M1.65,71.42C1.66,71.21,1.69,71,1.7,70.77c0.27-4.17,2.72-4.6,2.82-4.62
				c0.05-0.01,0.1-0.01,0.15,0c0.16,0.04,0.28,0.17,0.31,0.33c0.04,0.22-0.11,0.43-0.35,0.47c-0.07,0.01-1.91,0.38-2.14,3.85
				c-0.01,0.14-0.01,0.27-0.02,0.4c0.06,0.11,0.14,0.22,0.2,0.35c1.7,3.02,3.5,2.55,3.58,2.54c0.21-0.06,0.45,0.06,0.51,0.27
				c0.05,0.16-0.01,0.35-0.14,0.45c-0.04,0.04-0.09,0.06-0.14,0.07c-0.1,0.02-2.5,0.72-4.53-2.92C1.86,71.79,1.75,71.6,1.65,71.42z"
				/>
			<path id="XMLID_186_" class="st0" d="M12.6,22.8c0.17-0.11,0.35-0.24,0.53-0.36c3.39-2.39,5.25-0.72,5.33-0.64
				c0.04,0.04,0.07,0.07,0.09,0.12c0.07,0.15,0.05,0.33-0.06,0.46c-0.15,0.17-0.41,0.19-0.58,0.02c-0.06-0.05-1.49-1.27-4.31,0.71
				c-0.11,0.07-0.22,0.15-0.32,0.22c-0.05,0.12-0.1,0.25-0.15,0.37c-1.29,3.22,0.21,4.37,0.27,4.41c0.19,0.12,0.24,0.38,0.1,0.57
				c-0.1,0.15-0.27,0.21-0.42,0.17c-0.05-0.01-0.1-0.04-0.14-0.06c-0.09-0.06-2.1-1.52-0.57-5.4C12.46,23.2,12.53,23,12.6,22.8z"/>
			<path id="XMLID_185_" class="st0" d="M56.98,1.17c0.2,0.06,0.4,0.12,0.61,0.2c3.95,1.19,3.82,3.71,3.81,3.81
				c0,0.05-0.01,0.1-0.04,0.15c-0.07,0.15-0.22,0.25-0.4,0.24c-0.22-0.01-0.4-0.21-0.38-0.45c0-0.07,0.05-1.97-3.23-2.97
				c-0.12-0.04-0.25-0.07-0.37-0.11c-0.12,0.04-0.25,0.07-0.38,0.11c-3.29,0.99-3.24,2.9-3.23,2.97c0.01,0.22-0.15,0.42-0.38,0.45
				c-0.17,0.01-0.32-0.09-0.4-0.24c-0.02-0.05-0.04-0.1-0.04-0.15c-0.01-0.11-0.14-2.62,3.81-3.81C56.59,1.29,56.79,1.23,56.98,1.17
				z"/>
			<path id="XMLID_184_" class="st0" d="M101.36,22.8c0.07,0.2,0.15,0.4,0.24,0.61c1.53,3.87-0.48,5.35-0.57,5.4
				c-0.05,0.02-0.09,0.05-0.14,0.06c-0.16,0.04-0.33-0.02-0.43-0.17c-0.12-0.19-0.09-0.45,0.1-0.57c0.06-0.05,1.56-1.19,0.27-4.41
				c-0.05-0.12-0.1-0.25-0.15-0.37c-0.11-0.07-0.21-0.15-0.32-0.22c-2.82-1.98-4.26-0.75-4.31-0.71c-0.16,0.15-0.42,0.15-0.58-0.02
				c-0.11-0.12-0.14-0.31-0.06-0.46c0.02-0.05,0.05-0.09,0.09-0.12c0.07-0.07,1.94-1.74,5.33,0.64
				C101.02,22.57,101.19,22.69,101.36,22.8z"/>
			<path id="XMLID_183_" class="st0" d="M112.32,71.42c-0.11,0.19-0.21,0.37-0.32,0.56c-2.03,3.64-4.43,2.95-4.53,2.92
				c-0.05-0.01-0.1-0.04-0.14-0.07c-0.12-0.1-0.19-0.27-0.14-0.45c0.06-0.22,0.3-0.35,0.51-0.27c0.07,0.02,1.89,0.5,3.58-2.54
				c0.06-0.12,0.14-0.24,0.2-0.35c-0.01-0.14-0.02-0.26-0.02-0.4c-0.22-3.47-2.07-3.84-2.14-3.85c-0.22-0.04-0.37-0.25-0.33-0.47
				c0.02-0.17,0.15-0.3,0.31-0.33c0.05-0.01,0.1-0.01,0.15,0c0.1,0.01,2.56,0.45,2.82,4.62C112.29,71,112.3,71.21,112.32,71.42z"/>
		</g>
		<g id="XMLID_167_">
			<path id="XMLID_181_" class="st0" d="M60.51,105.38c0-1.18,0.5-2.2,1.25-2.91c1.26-1.19,3.38-1.61,4.99-0.09
				c1.29,1.21,1.13,2.34,0.92,2.91c-0.37,1-1.46,1.79-2.55,1.84c-0.78,0.02-1.4-0.32-1.7-0.99c-0.48-1.05,0.01-1.83,0.59-2.18
				c0.67-0.41,1.46-0.31,1.84,0.21c0.14,0.19,0.09,0.45-0.09,0.58c-0.19,0.14-0.43,0.1-0.57-0.09c-0.12-0.16-0.48-0.16-0.77,0.01
				c-0.19,0.11-0.58,0.45-0.27,1.11c0.21,0.45,0.62,0.52,0.93,0.51c0.67-0.02,1.53-0.52,1.82-1.3c0.24-0.66-0.01-1.35-0.72-2.02
				c-1.24-1.18-2.88-0.84-3.87,0.09c-1.03,0.98-1.62,2.87,0.1,5.02c2.39,2.98,6.81,3.06,6.84,3.06c0.22,0,0.41,0.19,0.41,0.41l0,0
				c0,0.22-0.19,0.41-0.41,0.41c-0.2,0-4.85-0.09-7.48-3.35C60.88,107.49,60.51,106.38,60.51,105.38z"/>
			<path id="XMLID_180_" class="st0" d="M95.27,84.98c-0.9-0.73-1.39-1.77-1.46-2.8c-0.14-1.74,0.87-3.68,3.03-4
				c1.73-0.26,2.51,0.57,2.82,1.09c0.54,0.92,0.47,2.28-0.17,3.17c-0.46,0.63-1.13,0.9-1.82,0.73c-1.11-0.27-1.4-1.15-1.31-1.83
				c0.11-0.78,0.68-1.35,1.31-1.32c0.22,0.01,0.4,0.2,0.38,0.43c-0.01,0.22-0.2,0.41-0.42,0.4c-0.2-0.01-0.42,0.27-0.47,0.62
				c-0.04,0.21-0.02,0.73,0.69,0.92c0.47,0.11,0.79-0.16,0.97-0.41c0.4-0.54,0.56-1.53,0.12-2.25c-0.36-0.59-1.05-0.84-2-0.69
				c-1.67,0.25-2.45,1.76-2.34,3.12c0.11,1.42,1.21,3.08,3.94,3.06c3.79-0.04,6.6-3.48,6.63-3.51c0.14-0.17,0.4-0.2,0.57-0.06l0,0
				c0.17,0.15,0.2,0.41,0.06,0.58c-0.12,0.15-3.08,3.79-7.25,3.82C97.14,86.02,96.05,85.61,95.27,84.98z"/>
			<path id="XMLID_179_" class="st0" d="M101.21,44.75c-1.13,0.26-2.23,0-3.07-0.58c-1.44-0.98-2.3-2.98-1.2-4.9
				c0.88-1.53,2-1.63,2.6-1.56c1.05,0.14,2.05,1.05,2.34,2.1c0.2,0.75,0,1.45-0.57,1.89c-0.9,0.72-1.77,0.4-2.23-0.1
				c-0.53-0.58-0.62-1.37-0.2-1.87c0.15-0.17,0.41-0.19,0.58-0.04c0.17,0.15,0.19,0.41,0.04,0.58c-0.14,0.16-0.05,0.51,0.19,0.75
				c0.15,0.16,0.56,0.48,1.14,0.02c0.38-0.3,0.37-0.73,0.28-1.03c-0.17-0.66-0.84-1.4-1.66-1.51c-0.68-0.09-1.3,0.31-1.78,1.15
				c-0.85,1.49-0.16,3.03,0.95,3.8c1.18,0.8,3.13,0.97,4.81-1.21c2.34-3.02,1.42-7.4,1.41-7.44c-0.05-0.22,0.09-0.45,0.31-0.5l0,0
				c0.22-0.05,0.43,0.09,0.48,0.31c0.04,0.2,1,4.8-1.57,8.12C103.17,43.92,102.18,44.52,101.21,44.75z"/>
			<path id="XMLID_178_" class="st0" d="M73.84,14.97c-0.51,1.05-1.4,1.76-2.38,2.07c-1.65,0.52-3.74-0.04-4.53-2.1
				c-0.63-1.66-0.01-2.61,0.42-3.02c0.77-0.74,2.09-0.98,3.08-0.53c0.72,0.31,1.11,0.9,1.1,1.63c-0.01,1.16-0.8,1.65-1.47,1.7
				c-0.78,0.06-1.46-0.37-1.57-1c-0.04-0.22,0.11-0.43,0.33-0.48c0.22-0.04,0.43,0.11,0.47,0.33c0.04,0.2,0.36,0.36,0.69,0.32
				c0.21-0.01,0.72-0.14,0.72-0.89c0-0.5-0.33-0.74-0.62-0.87c-0.62-0.27-1.61-0.2-2.19,0.37c-0.5,0.48-0.57,1.23-0.22,2.13
				c0.62,1.6,2.24,2.02,3.53,1.62c1.35-0.42,2.7-1.88,2.07-4.57c-0.88-3.74-4.83-5.74-4.86-5.75c-0.2-0.1-0.28-0.35-0.19-0.54l0,0
				c0.1-0.2,0.35-0.28,0.54-0.19c0.17,0.09,4.33,2.2,5.3,6.31C74.42,12.89,74.27,14.07,73.84,14.97z"/>
			<path id="XMLID_177_" class="st0" d="M33.78,18.06c0.51,1.05,0.5,2.2,0.12,3.17c-0.63,1.63-2.35,2.93-4.44,2.28
				c-1.67-0.53-2.02-1.61-2.08-2.22c-0.1-1.06,0.54-2.26,1.51-2.77c0.68-0.37,1.4-0.32,1.96,0.15c0.89,0.73,0.77,1.66,0.4,2.23
				c-0.43,0.66-1.19,0.93-1.76,0.62c-0.2-0.11-0.27-0.36-0.16-0.56s0.36-0.27,0.56-0.17c0.19,0.1,0.51-0.06,0.69-0.35
				c0.12-0.19,0.33-0.66-0.24-1.13c-0.37-0.31-0.78-0.2-1.05-0.05c-0.59,0.32-1.16,1.14-1.08,1.97c0.06,0.69,0.58,1.21,1.51,1.5
				c1.62,0.51,2.96-0.51,3.44-1.78c0.51-1.34,0.24-3.3-2.24-4.48c-3.43-1.63-7.44,0.24-7.48,0.26c-0.2,0.1-0.45,0.01-0.54-0.2l0,0
				c-0.1-0.21-0.01-0.46,0.2-0.56c0.17-0.09,4.41-2.05,8.17-0.26C32.53,16.32,33.35,17.16,33.78,18.06z"/>
			<path id="XMLID_176_" class="st0" d="M11.18,51.71c1.13,0.26,2,0.98,2.52,1.88c0.87,1.51,0.79,3.69-1.01,4.94
				c-1.46,0.99-2.51,0.59-3.01,0.26c-0.88-0.58-1.4-1.84-1.2-2.93c0.14-0.77,0.63-1.3,1.32-1.46c1.13-0.25,1.76,0.42,1.97,1.08
				c0.24,0.75-0.02,1.52-0.62,1.77c-0.21,0.09-0.45-0.01-0.53-0.22c-0.09-0.21,0.01-0.46,0.21-0.54c0.19-0.09,0.26-0.43,0.16-0.77
				c-0.06-0.21-0.3-0.67-1.01-0.52c-0.47,0.1-0.64,0.5-0.69,0.8c-0.12,0.67,0.16,1.63,0.85,2.08c0.57,0.38,1.3,0.3,2.1-0.26
				c1.4-0.97,1.45-2.66,0.77-3.84c-0.71-1.24-2.41-2.24-4.85-1.03c-3.4,1.7-4.46,6.04-4.47,6.08c-0.05,0.22-0.27,0.36-0.48,0.31l0,0
				c-0.22-0.05-0.36-0.27-0.3-0.5c0.05-0.2,1.16-4.76,4.9-6.63C9.06,51.6,10.22,51.48,11.18,51.71z"/>
			<path id="XMLID_175_" class="st0" d="M23.09,90.56c0.9-0.73,2-0.98,3.02-0.82c1.71,0.26,3.35,1.67,3.18,3.89
				c-0.14,1.77-1.1,2.35-1.67,2.54c-1,0.33-2.3-0.04-3.01-0.88c-0.51-0.59-0.62-1.31-0.3-1.96c0.51-1.04,1.42-1.13,2.05-0.89
				c0.73,0.28,1.15,0.97,0.98,1.6c-0.06,0.22-0.28,0.35-0.51,0.28c-0.22-0.06-0.35-0.28-0.28-0.51c0.05-0.2-0.17-0.48-0.48-0.61
				c-0.2-0.07-0.71-0.19-1.03,0.48c-0.21,0.45-0.02,0.82,0.19,1.05c0.45,0.51,1.36,0.89,2.14,0.63c0.66-0.22,1.04-0.84,1.11-1.82
				c0.14-1.71-1.15-2.81-2.49-3.01c-1.4-0.21-3.23,0.51-3.82,3.21c-0.8,3.75,1.88,7.29,1.92,7.33c0.14,0.17,0.11,0.43-0.06,0.58l0,0
				c-0.17,0.14-0.43,0.11-0.57-0.07c-0.12-0.16-2.96-3.89-2.07-8.01C21.68,92.18,22.31,91.19,23.09,90.56z"/>
			<path id="XMLID_174_" class="st0" d="M53.46,105.38c0-1.18-0.5-2.2-1.25-2.91c-1.26-1.19-3.38-1.61-4.99-0.09
				c-1.29,1.21-1.13,2.34-0.92,2.91c0.37,1,1.46,1.79,2.55,1.84c0.78,0.02,1.4-0.32,1.7-0.99c0.48-1.05-0.01-1.83-0.59-2.18
				c-0.67-0.41-1.46-0.31-1.84,0.21c-0.14,0.19-0.09,0.45,0.09,0.58c0.19,0.14,0.43,0.1,0.57-0.09c0.12-0.16,0.48-0.16,0.77,0.01
				c0.19,0.11,0.58,0.45,0.27,1.11c-0.21,0.45-0.62,0.52-0.93,0.51c-0.67-0.02-1.53-0.52-1.82-1.3c-0.24-0.66,0.01-1.35,0.72-2.02
				c1.24-1.18,2.88-0.84,3.87,0.09c1.03,0.98,1.62,2.87-0.1,5.02c-2.39,2.98-6.81,3.06-6.84,3.06c-0.22,0-0.41,0.19-0.41,0.41l0,0
				c0,0.22,0.19,0.41,0.41,0.41c0.2,0,4.85-0.09,7.48-3.35C53.08,107.49,53.46,106.38,53.46,105.38z"/>
			<path id="XMLID_173_" class="st0" d="M90.88,90.56c-0.9-0.73-2-0.98-3.02-0.82c-1.71,0.26-3.35,1.67-3.18,3.89
				c0.14,1.77,1.1,2.35,1.67,2.54c1,0.33,2.3-0.04,3.01-0.88c0.51-0.59,0.62-1.31,0.3-1.96c-0.51-1.04-1.42-1.13-2.05-0.89
				c-0.73,0.28-1.15,0.97-0.98,1.6c0.06,0.22,0.28,0.35,0.51,0.28c0.22-0.06,0.35-0.28,0.28-0.51c-0.05-0.2,0.17-0.48,0.48-0.61
				c0.2-0.07,0.71-0.19,1.03,0.48c0.21,0.45,0.01,0.82-0.19,1.05c-0.45,0.51-1.36,0.89-2.14,0.63c-0.66-0.22-1.04-0.84-1.11-1.82
				c-0.14-1.71,1.15-2.81,2.49-3.01c1.4-0.21,3.23,0.51,3.82,3.21c0.8,3.75-1.88,7.29-1.92,7.33c-0.14,0.17-0.11,0.43,0.06,0.58l0,0
				c0.17,0.14,0.43,0.11,0.57-0.07c0.12-0.16,2.96-3.89,2.07-8.01C92.29,92.18,91.66,91.19,90.88,90.56z"/>
			<path id="XMLID_172_" class="st0" d="M102.79,51.71c-1.13,0.26-2,0.98-2.52,1.88c-0.87,1.51-0.79,3.69,1.01,4.94
				c1.46,0.99,2.51,0.59,3.01,0.26c0.88-0.58,1.4-1.84,1.2-2.93c-0.14-0.77-0.63-1.3-1.32-1.46c-1.13-0.25-1.76,0.42-1.97,1.08
				c-0.24,0.75,0.02,1.52,0.62,1.77c0.21,0.09,0.45-0.01,0.53-0.22c0.09-0.21-0.01-0.46-0.21-0.54c-0.19-0.09-0.26-0.43-0.16-0.77
				c0.06-0.21,0.3-0.67,1.01-0.52c0.47,0.1,0.64,0.5,0.69,0.8c0.12,0.67-0.16,1.63-0.85,2.08c-0.57,0.38-1.3,0.3-2.1-0.26
				c-1.4-0.97-1.45-2.66-0.77-3.84c0.71-1.24,2.41-2.24,4.85-1.03c3.4,1.7,4.46,6.04,4.47,6.08c0.05,0.22,0.27,0.36,0.48,0.31l0,0
				c0.22-0.05,0.36-0.27,0.31-0.5c-0.05-0.2-1.16-4.76-4.9-6.63C104.9,51.6,103.75,51.48,102.79,51.71z"/>
			<path id="XMLID_171_" class="st0" d="M80.19,18.06c-0.51,1.05-0.5,2.2-0.12,3.17c0.63,1.63,2.35,2.93,4.44,2.28
				c1.67-0.53,2.02-1.61,2.08-2.22c0.1-1.06-0.54-2.26-1.51-2.77c-0.68-0.37-1.4-0.32-1.96,0.15c-0.89,0.73-0.77,1.66-0.4,2.23
				c0.43,0.66,1.19,0.93,1.76,0.62c0.2-0.11,0.27-0.36,0.16-0.56c-0.11-0.2-0.36-0.27-0.56-0.17c-0.19,0.1-0.51-0.06-0.69-0.35
				c-0.12-0.19-0.33-0.66,0.24-1.13c0.37-0.31,0.78-0.2,1.05-0.05c0.59,0.32,1.16,1.14,1.08,1.97c-0.06,0.69-0.58,1.21-1.51,1.5
				c-1.62,0.51-2.96-0.51-3.44-1.78c-0.51-1.34-0.24-3.3,2.24-4.48c3.43-1.63,7.44,0.24,7.48,0.26c0.2,0.1,0.45,0.01,0.54-0.2l0,0
				c0.1-0.21,0.01-0.46-0.2-0.54c-0.17-0.09-4.41-2.05-8.17-0.26C81.44,16.32,80.62,17.16,80.19,18.06z"/>
			<path id="XMLID_170_" class="st0" d="M40.13,14.97c0.51,1.05,1.39,1.76,2.38,2.07c1.65,0.52,3.74-0.04,4.53-2.1
				c0.63-1.66,0.01-2.6-0.42-3.02c-0.77-0.74-2.09-0.98-3.08-0.53c-0.72,0.31-1.11,0.9-1.1,1.63c0.01,1.16,0.8,1.65,1.47,1.7
				c0.78,0.06,1.46-0.37,1.57-1c0.04-0.22-0.11-0.43-0.33-0.48c-0.22-0.04-0.43,0.11-0.47,0.33c-0.06,0.2-0.38,0.35-0.72,0.32
				c-0.21-0.01-0.72-0.14-0.72-0.89c-0.01-0.5,0.33-0.74,0.62-0.87c0.62-0.27,1.61-0.2,2.19,0.37c0.5,0.48,0.57,1.23,0.22,2.13
				c-0.62,1.6-2.24,2.02-3.53,1.62c-1.35-0.42-2.7-1.88-2.07-4.57c0.88-3.74,4.83-5.74,4.86-5.75c0.2-0.1,0.28-0.35,0.19-0.54l0,0
				c-0.1-0.21-0.35-0.28-0.54-0.19c-0.17,0.09-4.33,2.2-5.3,6.31C39.55,12.89,39.69,14.07,40.13,14.97z"/>
			<path id="XMLID_169_" class="st0" d="M12.75,44.75c1.13,0.26,2.23,0,3.07-0.58c1.44-0.98,2.3-2.98,1.2-4.9
				c-0.88-1.53-2-1.63-2.6-1.56c-1.05,0.14-2.05,1.05-2.34,2.1c-0.2,0.75,0.01,1.45,0.57,1.89c0.9,0.72,1.77,0.4,2.23-0.1
				c0.53-0.58,0.62-1.37,0.2-1.87c-0.15-0.17-0.41-0.19-0.58-0.04c-0.17,0.15-0.19,0.41-0.04,0.58c0.14,0.16,0.05,0.51-0.19,0.75
				c-0.15,0.16-0.56,0.48-1.14,0.02c-0.38-0.3-0.36-0.73-0.28-1.03c0.17-0.66,0.84-1.4,1.66-1.51c0.68-0.09,1.3,0.31,1.78,1.15
				c0.85,1.49,0.16,3.03-0.95,3.8c-1.18,0.8-3.13,0.97-4.81-1.21c-2.34-3.02-1.42-7.4-1.41-7.44c0.05-0.22-0.09-0.45-0.31-0.5l0,0
				c-0.22-0.05-0.43,0.1-0.48,0.31c-0.04,0.2-1,4.8,1.57,8.13C10.8,43.92,11.79,44.52,12.75,44.75z"/>
			<path id="XMLID_168_" class="st0" d="M18.69,84.98c0.9-0.73,1.39-1.77,1.46-2.8c0.14-1.74-0.87-3.68-3.03-4
				c-1.73-0.26-2.51,0.57-2.82,1.09c-0.54,0.92-0.47,2.28,0.17,3.17c0.46,0.63,1.13,0.9,1.82,0.73c1.11-0.27,1.4-1.15,1.31-1.83
				c-0.11-0.78-0.68-1.35-1.31-1.32c-0.22,0.01-0.4,0.2-0.38,0.43c0.01,0.22,0.2,0.41,0.42,0.4c0.2-0.01,0.42,0.27,0.47,0.62
				c0.04,0.21,0.02,0.73-0.69,0.92c-0.47,0.11-0.79-0.16-0.97-0.41c-0.4-0.54-0.56-1.53-0.12-2.25c0.36-0.59,1.05-0.84,2-0.69
				c1.67,0.25,2.44,1.76,2.34,3.12c-0.11,1.42-1.21,3.08-3.94,3.06c-3.79-0.04-6.6-3.48-6.63-3.51c-0.14-0.17-0.4-0.2-0.57-0.06l0,0
				c-0.17,0.15-0.2,0.41-0.06,0.58c0.12,0.15,3.08,3.79,7.25,3.82C16.82,86.02,17.91,85.61,18.69,84.98z"/>
		</g>
	</g>
	<g id="XMLID_4_">
		<g id="XMLID_1_">
			<text id="XMLID_2_" transform="matrix(1 0 0 1 19.1792 58.9469)" class="st0 st1 st2">Colibri de Papel</text>
			<text id="XMLID_3_" transform="matrix(1 0 0 1 28.644 72.4996)" class="st0 st3 st4">taller creativo</text>
		</g>
		<path id="XMLID_22_" class="st0" d="M46.87,51.52c0.04-0.02,0.04-0.08,0.01-0.15c-0.02-0.07-0.06-0.14-0.09-0.22
			c-0.04-0.06-0.05-0.09-0.04-0.13c0.01-0.02,0.05-0.02,0.08-0.01c0.04,0.01,0.07,0.05,0.11,0.08c0.04,0.04,0.07,0.07,0.09,0.12
			c0.05,0.08,0.08,0.17,0.11,0.24c0.04,0.07,0.05,0.13,0.06,0.18c0.01,0.05,0.01,0.09,0.01,0.13c-0.01,0.04-0.02,0.07-0.06,0.09
			c0,0-0.01,0.01-0.04,0.04c-0.02,0.02-0.05,0.05-0.08,0.07C47,51.98,46.96,52,46.93,52.04c-0.04,0.04-0.08,0.07-0.12,0.11
			l-0.33,0.28c-0.01,0.01-0.05,0.01-0.08-0.01c-0.04-0.02-0.08-0.06-0.12-0.11c-0.04-0.05-0.06-0.08-0.08-0.13
			c-0.01-0.05-0.01-0.07,0-0.08L46.87,51.52z"/>
	</g>
</g>
</svg>
